PathFileType	4	(X/Y/Z)	E:\Qualisys_Data\Carbon_Farble_Plate\Data\Amateur_Runner\S1\T2\S1T2V23_c3d.trc
DataRate	CameraRate	NumFrames	NumMarkers	Units	OrigDataRate	OrigDataStartFrame	OrigNumFrames
200.000000	200.000000	4	39	mm	200.000000	75	300
Frame#	Time	LSHO			RSHO			LICST			RICST			LASIS			LHEEL			RASIS			LTROC			RTROC			SACR			LTH1			LSK4			LTH2			LTH3			RHM5			LSK2			LTH4			RTH1			LTOE			RTH2			RTH3			RTH4			LLEP			RLEP			LSK1			LSK3			RSK1			LHM5			RSK2			LFT1			RSK3			RSK4			LLME			RLME			RTOE			RHEEL			RFT1			RFT2			LFT2			
		X1	Y1	Z1	X2	Y2	Z2	X3	Y3	Z3	X4	Y4	Z4	X5	Y5	Z5	X6	Y6	Z6	X7	Y7	Z7	X8	Y8	Z8	X9	Y9	Z9	X10	Y10	Z10	X11	Y11	Z11	X12	Y12	Z12	X13	Y13	Z13	X14	Y14	Z14	X15	Y15	Z15	X16	Y16	Z16	X17	Y17	Z17	X18	Y18	Z18	X19	Y19	Z19	X20	Y20	Z20	X21	Y21	Z21	X22	Y22	Z22	X23	Y23	Z23	X24	Y24	Z24	X25	Y25	Z25	X26	Y26	Z26	X27	Y27	Z27	X28	Y28	Z28	X29	Y29	Z29	X30	Y30	Z30	X31	Y31	Z31	X32	Y32	Z32	X33	Y33	Z33	X34	Y34	Z34	X35	Y35	Z35	X36	Y36	Z36	X37	Y37	Z37	X38	Y38	Z38	X39	Y39	Z39	

76	0.375	-1615.046630859375	1538.69287109375	-580.6260986328125	-1530.571533203125	1540.283447265625	-268.8612976074219	-1591.200439453125	1072.759887695312	-544.79150390625	-1580.656372070312	1085.209228515625	-248.8624877929688	-1546.000122070312	1033.409057617188	-517.1961059570312	-1374.709838867188	122.3239669799805	-444.546142578125	-1547.6826171875	1032.328735351562	-255.2948913574219	-1640.127563476562	950.84423828125	-567.927490234375	-1676.374633789062	968.49951171875	-226.7353668212891	-1703.167236328125	1100.81689453125	-392.1719665527344	-1471.55908203125	840.8721313476562	-533.489013671875	-1419.66943359375	291.1880187988281	-480.4342041015625	-1539.011474609375	802.81005859375	-571.1541748046875	-1429.472778320312	746.9989624023438	-517.31689453125	-2163.24951171875	200.8848876953125	-293.7843017578125	-1436.992919921875	385.5887451171875	-519.8944091796875	-1502.572631835938	711.08203125	-546.1294555664062	-1604.838745117188	805.3616333007812	-259.4908447265625	-1140.2919921875	228.8621063232422	-450.4002990722656	-1671.669799804688	830.6958618164062	-226.8126983642578	-1645.003540039062	713.7459106445312	-273.3111572265625	-1715.781372070312	741.9581298828125	-245.1674499511719	-1409.6474609375	599.4594116210938	-502.6875	-1772.549438476562	576.9349975585938	-285.860107421875	-1355.82470703125	398.6935119628906	-513.2670288085938	-1343.89013671875	298.2290344238281	-506.587890625	-1932.016723632812	467.6898803710938	-267.2426147460938	-1184.571899414062	167.0982513427734	-515.981689453125	-1978.512329101562	534.33544921875	-278.8294372558594	-1351.164672851562	101.8442459106445	-418.0397644042969	-2013.921752929688	407.9884643554688	-278.8351440429688	-2057.541259765625	473.9403686523438	-301.6521301269531	-1336.952514648438	170.0640869140625	-496.3840026855469	-2138.8525390625	353.1629943847656	-282.0951232910156	-2122.72802734375	163.3611145019531	-373.7027893066406	-2191.89013671875	399.7458190917969	-316.4861450195312	-2219.803466796875	385.8831787109375	-350.6413269042969	-2218.41162109375	384.014892578125	-295.84228515625	-1352.889404296875	94.44195556640624	-470.4298706054688
77	0.38	-1594.516967773438	1536.335083007812	-581.9334716796875	-1509.690673828125	1538.89306640625	-269.6396484375	-1570.739135742188	1071.644165039062	-544.2611694335938	-1560.080688476562	1083.43701171875	-248.6064453125	-1526.0	1032.358276367188	-517.8998413085938	-1353.110107421875	119.9011001586914	-442.40234375	-1527.516235351562	1030.761840820312	-255.0185241699219	-1619.725463867188	949.0016479492188	-567.599853515625	-1655.086303710938	966.2438354492188	-225.3231964111328	-1683.856323242188	1099.117431640625	-392.4243469238281	-1452.804077148438	836.3567504882812	-533.3931274414062	-1399.5166015625	287.9137268066406	-478.4260864257812	-1520.568603515625	799.7404174804688	-572.01513671875	-1412.783935546875	741.5931396484375	-517.4003295898438	-2147.34130859375	207.943115234375	-292.8000793457031	-1417.685791015625	382.8161010742188	-518.6681518554688	-1486.219482421875	707.0918579101562	-547.9061279296875	-1581.951049804688	803.5256958007812	-260.7399597167969	-1119.751708984375	228.7547607421875	-450.6247253417969	-1649.580444335938	827.8492431640625	-227.8883209228516	-1621.1083984375	711.401123046875	-273.9785461425781	-1690.691772460938	738.7183227539062	-244.551513671875	-1391.375732421875	596.8012084960938	-502.0308227539062	-1748.098876953125	573.651123046875	-285.5221557617188	-1336.036010742188	396.4580078125	-512.3145141601562	-1323.125366210938	296.2695922851562	-505.7774658203125	-1910.886596679688	468.6777038574219	-266.9525756835938	-1163.64453125	166.6801147460938	-515.4085083007812	-1954.35205078125	536.4376220703125	-278.569580078125	-1328.594604492188	99.91152191162108	-415.8740539550781	-1992.921630859375	411.9700622558594	-277.9399719238281	-2035.403686523438	478.8815002441406	-301.2685546875	-1315.475341796875	168.119873046875	-495.4416809082031	-2120.885986328125	360.7033996582031	-281.1841125488281	-2107.44189453125	171.3091888427734	-373.0155334472656	-2173.142822265625	408.1164245605469	-315.3088073730469	-2200.56201171875	394.8955078125	-350.2528991699219	-2199.439697265625	392.3536682128906	-294.1207580566406	-1330.57568359375	92.47460174560548	-469.3059997558594
78	0.385	-1573.919799804688	1534.186645507812	-583.0258178710938	-1488.68310546875	1537.563842773438	-270.2112731933594	-1550.602905273438	1070.401977539062	-543.7871704101562	-1540.291259765625	1081.435180664062	-248.1923065185547	-1505.5	1031.113647460938	-517.3668212890625	-1332.28564453125	117.5484085083008	-440.8074340820312	-1506.9599609375	1029.443603515625	-255.1555633544922	-1599.529296875	947.3062744140624	-567.671142578125	-1633.890625	963.2496948242188	-224.4968719482422	-1663.016235351562	1096.736328125	-391.6485595703125	-1434.074462890625	832.3988647460938	-533.6351928710938	-1379.459106445312	285.4933776855469	-476.8620300292969	-1501.646362304688	796.4901733398438	-572.7263793945312	-1395.326293945312	736.3136596679688	-518.0059814453125	-2130.978271484375	216.1348876953125	-292.027099609375	-1398.5400390625	379.8984985351562	-517.106689453125	-1468.88330078125	703.9266357421875	-549.104736328125	-1558.958862304688	800.9358520507812	-261.3545532226562	-1099.844604492188	226.9677276611328	-450.3180541992188	-1624.803588867188	824.6351318359375	-227.1995086669922	-1597.321411132812	708.2817993164062	-273.8986206054688	-1666.1591796875	735.192138671875	-243.7409515380859	-1373.527954101562	593.8235473632812	-501.4054565429688	-1722.920532226562	569.6201782226562	-285.0455627441406	-1316.775146484375	393.6489562988281	-511.138916015625	-1303.142944335938	293.4018859863281	-504.5266418457031	-1887.749389648438	469.6385192871094	-266.4202880859375	-1143.176635742188	164.5618286132812	-515.0398559570312	-1930.3505859375	538.8067016601562	-278.4592590332031	-1308.181640625	97.8962173461914	-414.29833984375	-1973.244384765625	414.112548828125	-279.0355834960938	-2012.716796875	483.6785888671875	-299.6344909667969	-1295.4482421875	165.5598297119141	-493.7998962402344	-2102.400146484375	366.1987915039062	-280.3492431640625	-2091.7138671875	178.9044647216797	-372.4422302246094	-2152.071533203125	416.9125671386719	-314.468017578125	-2179.858642578125	403.4751281738281	-349.1232604980469	-2179.68505859375	401.3980407714844	-293.6728515625	-1310.301025390625	90.22604370117188	-467.8836975097656
79	0.39	-1552.883666992188	1531.469482421875	-583.1204223632812	-1467.95458984375	1535.823486328125	-271.1457824707031	-1531.054443359375	1068.683959960938	-543.3653564453125	-1520.464477539062	1079.082763671875	-247.8598175048828	-1485.41455078125	1029.935546875	-517.3148803710938	-1313.85888671875	115.1992797851562	-438.9108581542969	-1486.323120117188	1027.334594726562	-255.2334136962891	-1579.104125976562	945.7037963867188	-567.5072021484375	-1612.49755859375	960.20703125	-223.7688598632812	-1643.04638671875	1094.663696289062	-391.1844177246094	-1415.44580078125	828.69677734375	-534.088623046875	-1360.826782226562	282.2490844726562	-475.177001953125	-1483.648071289062	794.8078002929688	-573.9905395507812	-1377.246704101562	732.4857788085938	-519.521484375	-2113.644287109375	224.1176910400391	-291.4217834472656	-1380.108764648438	376.8138732910156	-515.4744262695312	-1451.161010742188	700.74658203125	-548.689697265625	-1536.254028320312	799.0064086914062	-261.4830322265625	-1080.893920898438	223.8177185058594	-450.4295043945312	-1603.329467773438	821.3226928710938	-227.2052001953125	-1573.24951171875	705.4696044921875	-273.9728393554688	-1643.405395507812	731.2334594726562	-243.9619445800781	-1356.168701171875	591.7353515625	-501.26318359375	-1698.773681640625	565.5825805664062	-284.70751953125	-1297.36669921875	390.6442565917969	-509.965087890625	-1284.465454101562	290.5106811523438	-503.293701171875	-1865.446533203125	469.0240783691406	-266.8088989257812	-1125.123779296875	161.4943389892578	-514.1582641601562	-1904.747314453125	539.9715576171875	-278.075927734375	-1289.402587890625	95.388671875	-412.6720581054688	-1952.206420898438	417.9815673828125	-277.9307861328125	-1989.0576171875	487.2150573730469	-299.7076416015625	-1277.039306640625	163.0489196777344	-492.4649047851562	-2081.6591796875	373.552001953125	-279.6241760253906	-2074.51611328125	185.5458068847656	-371.4505615234375	-2131.587890625	425.1471862792969	-313.4655151367188	-2158.83056640625	412.1936950683594	-347.9621887207031	-2158.8837890625	410.0946044921875	-292.7824401855469	-1291.62158203125	87.43850708007812	-465.9602661132812
